<svg xmlns="http://www.w3.org/2000/svg" x="0" y="0" width="662" height="541" style="
        width:662px;
        height:541px;
        background: #FFF;
        fill: none;
">
        
        
        <svg xmlns="http://www.w3.org/2000/svg" class="role-diagram-draw-area"><g class="shapes-region" style="stroke: black; fill: none;"><g class="grouped-shape"><g class="composite-shape"><path class="real" d=" M183,48.83 C183,44.42 186.58,40.83 191,40.83 L245,40.83 C249.42,40.83 253,44.42 253,48.83 L253,72.83 C253,77.25 249.42,80.83 245,80.83 L191,80.83 C186.58,80.83 183,77.25 183,72.83 Z" style="stroke-width: 1px; stroke: rgb(0, 0, 0); fill: rgb(182, 244, 115);"/></g></g><g class="grouped-shape"><g class="composite-shape"><path class="real" d=" M332,49.83 C332,45.42 335.58,41.83 340,41.83 L476.5,41.83 C480.92,41.83 484.5,45.42 484.5,49.83 L484.5,73.83 C484.5,78.25 480.92,81.83 476.5,81.83 L340,81.83 C335.58,81.83 332,78.25 332,73.83 Z" style="stroke-width: 1px; stroke: rgb(0, 0, 0); fill: rgb(182, 244, 115);"/></g></g><g class="grouped-shape"><g class="composite-shape"><path class="real" d=" M139,212.9 C139,207.34 143.51,202.83 149.07,202.83 L285.43,202.83 C290.99,202.83 295.5,207.34 295.5,212.9 L295.5,243.1 C295.5,248.66 290.99,253.17 285.43,253.17 L149.07,253.17 C143.51,253.17 139,248.66 139,243.1 Z" style="stroke-width: 1px; stroke: rgb(0, 0, 0); fill: rgb(197, 220, 245);"/></g></g><g class="grouped-shape"><g class="composite-shape"><path class="real" d=" M140,128.9 C140,123.34 144.51,118.83 150.07,118.83 L286.43,118.83 C291.99,118.83 296.5,123.34 296.5,128.9 L296.5,159.1 C296.5,164.66 291.99,169.17 286.43,169.17 L150.07,169.17 C144.51,169.17 140,164.66 140,159.1 Z" style="stroke-width: 1px; stroke: rgb(0, 0, 0); fill: rgb(197, 220, 245);"/></g></g><g class="grouped-shape"><g class="composite-shape"><path class="real" d=" M137,298.9 C137,293.34 141.51,288.83 147.07,288.83 L283.43,288.83 C288.99,288.83 293.5,293.34 293.5,298.9 L293.5,329.1 C293.5,334.66 288.99,339.17 283.43,339.17 L147.07,339.17 C141.51,339.17 137,334.66 137,329.1 Z" style="stroke-width: 1px; stroke: rgb(0, 0, 0); fill: rgb(249, 226, 226);"/></g></g><g class="grouped-shape"><g class="composite-shape"><path class="real" d=" M212,468.9 C212,463.34 216.51,458.83 222.07,458.83 L358.43,458.83 C363.99,458.83 368.5,463.34 368.5,468.9 L368.5,499.1 C368.5,504.66 363.99,509.17 358.43,509.17 L222.07,509.17 C216.51,509.17 212,504.66 212,499.1 Z" style="stroke-width: 1px; stroke: rgb(0, 0, 0); fill: rgb(249, 226, 226);"/></g></g><g class="grouped-shape"><g class="composite-shape"><path class="real" d=" M331,211.9 C331,206.34 335.51,201.83 341.07,201.83 L511.43,201.83 C516.99,201.83 521.5,206.34 521.5,211.9 L521.5,242.1 C521.5,247.66 516.99,252.17 511.43,252.17 L341.07,252.17 C335.51,252.17 331,247.66 331,242.1 Z" style="stroke-width: 1px; stroke: rgb(0, 0, 0); fill: rgb(197, 220, 245);"/></g></g><g class="arrow-line"><path class="connection real" stroke-dasharray="" d="  M379.5,81.17 L256.36,116.28" style="stroke: rgb(0, 0, 0); stroke-width: 1px; fill: none;"/><g stroke="#000" transform="matrix(0.9616456211508753,-0.27429491304314635,0.27429491304314635,0.9616456211508753,254.43333435058594,116.83333587646484)" style="stroke: rgb(0, 0, 0); stroke-width: 1px;"><path d=" M10.93,-3.29 Q4.96,-0.45 0,0 Q4.96,0.45 10.93,3.29"/></g></g><g class="arrow-line"><path class="connection real" stroke-dasharray="" d="  M216.17,80.17 L216.07,116.83" style="stroke: rgb(0, 0, 0); stroke-width: 1px; fill: none;"/><g stroke="#000" transform="matrix(0.002617990887417647,-0.9999965730559848,0.9999965730559848,0.002617990887417647,216.06666564941406,118.83333587646487)" style="stroke: rgb(0, 0, 0); stroke-width: 1px;"><path d=" M10.93,-3.29 Q4.96,-0.45 0,0 Q4.96,0.45 10.93,3.29"/></g></g><g class="arrow-line"><path class="connection real" stroke-dasharray="" d="  M217.5,169.17 L217.5,201.17" style="stroke: rgb(0, 0, 0); stroke-width: 1px; fill: none;"/><g stroke="#000" transform="matrix(-1.8369701987210297e-16,-1,1,-1.8369701987210297e-16,217.5,203.16666412353513)" style="stroke: rgb(0, 0, 0); stroke-width: 1px;"><path d=" M10.93,-3.29 Q4.96,-0.45 0,0 Q4.96,0.45 10.93,3.29"/></g></g><g class="arrow-line"><path class="connection real" stroke-dasharray="" d="  M253.5,64.17 C332.7,96.84 358.97,139.31 380.84,198.37" style="stroke: rgb(0, 0, 0); stroke-width: 1px; fill: none;"/><g stroke="#000" transform="matrix(-0.34431522225200445,-0.9388541035355561,0.9388541035355561,-0.34431522225200445,381.5,200.16666412353516)" style="stroke: rgb(0, 0, 0); stroke-width: 1px;"><path d=" M10.93,-3.29 Q4.96,-0.45 0,0 Q4.96,0.45 10.93,3.29"/></g></g><g class="arrow-line"><path class="connection real" stroke-dasharray="" d="  M425.5,82.17 L427.47,199.17" style="stroke: rgb(0, 0, 0); stroke-width: 1px; fill: none;"/><g stroke="#000" transform="matrix(-0.01675437686898139,-0.9998596355767804,0.9998596355767804,-0.01675437686898139,427.5,201.16666412353516)" style="stroke: rgb(0, 0, 0); stroke-width: 1px;"><path d=" M10.93,-3.29 Q4.96,-0.45 0,0 Q4.96,0.45 10.93,3.29"/></g></g><g class="arrow-line"><path class="connection real" stroke-dasharray="" d="  M217,253.83 L217.47,287.17" style="stroke: rgb(0, 0, 0); stroke-width: 1px; fill: none;"/><g stroke="#000" transform="matrix(-0.014136696038032926,-0.9999000719197535,0.9999000719197535,-0.014136696038032926,217.5,289.16666412353516)" style="stroke: rgb(0, 0, 0); stroke-width: 1px;"><path d=" M10.93,-3.29 Q4.96,-0.45 0,0 Q4.96,0.45 10.93,3.29"/></g></g><g class="arrow-line"><path class="connection real" stroke-dasharray="" d="  M220.17,339.17 L268.89,374.98" style="stroke: rgb(0, 0, 0); stroke-width: 1px; fill: none;"/><g stroke="#000" transform="matrix(-0.8057215815690493,-0.5922944647672049,0.5922944647672049,-0.8057215815690493,270.5,376.16666412353516)" style="stroke: rgb(0, 0, 0); stroke-width: 1px;"><path d=" M10.93,-3.29 Q4.96,-0.45 0,0 Q4.96,0.45 10.93,3.29"/></g></g><g class="arrow-line"><path class="connection real" stroke-dasharray="" d="  M419.5,254.17 L316.79,375.64" style="stroke: rgb(0, 0, 0); stroke-width: 1px; fill: none;"/><g stroke="#000" transform="matrix(0.6457242635052726,-0.7635706748694409,0.7635706748694409,0.6457242635052726,315.5,377.16666412353516)" style="stroke: rgb(0, 0, 0); stroke-width: 1px;"><path d=" M10.93,-3.29 Q4.96,-0.45 0,0 Q4.96,0.45 10.93,3.29"/></g></g><g class="grouped-shape"><g class="composite-shape"><path class="real" d=" M189.78,387.9 C189.78,382.34 194.29,377.83 199.85,377.83 L375.43,377.83 C380.99,377.83 385.5,382.34 385.5,387.9 L385.5,418.1 C385.5,423.66 380.99,428.17 375.43,428.17 L199.85,428.17 C194.29,428.17 189.78,423.66 189.78,418.1 Z" style="stroke-width: 1px; stroke: rgb(0, 0, 0); fill: rgb(197, 220, 245);"/></g></g><g class="arrow-line"><path class="connection real" stroke-dasharray="" d="  M292,427.83 L292.16,456.17" style="stroke: rgb(0, 0, 0); stroke-width: 1px; fill: none;"/><g stroke="#000" transform="matrix(-0.00541049428353122,-0.9999853631686855,0.9999853631686855,-0.00541049428353122,292.1666259765625,458.16666412353516)" style="stroke: rgb(0, 0, 0); stroke-width: 1px;"><path d=" M10.93,-3.29 Q4.96,-0.45 0,0 Q4.96,0.45 10.93,3.29"/></g></g><g/></g><g/><g/><g/></svg>
        <svg xmlns="http://www.w3.org/2000/svg" width="660" height="539" style="width:660px;height:539px;font-family:Asana-Math, Asana;background:#FFF;"><g><g><text x="193.13330078125" y="382.5" style="white-space:pre;stroke:none;fill:rgb(0, 0, 0);font-size:15px;font-family:Arial, Helvetica, sans-serif;font-weight:400;font-style:normal;dominant-baseline:text-before-edge;text-decoration:rgb(0, 0, 0);">Финансово-экономическая</text></g><g><text x="258.7833251953125" y="403.5" style="white-space:pre;stroke:none;fill:rgb(0, 0, 0);font-size:15px;font-family:Arial, Helvetica, sans-serif;font-weight:400;font-style:normal;dominant-baseline:text-before-edge;text-decoration:rgb(0, 0, 0);"> модель</text></g></g><g><g><text x="341.5333251953125" y="206.5" style="white-space:pre;stroke:none;fill:rgb(0, 0, 0);font-size:15px;font-family:Arial, Helvetica, sans-serif;font-weight:400;font-style:normal;dominant-baseline:text-before-edge;text-decoration:rgb(0, 0, 0);">Модель поверхностного</text></g><g><text x="376.2166748046875" y="227.5" style="white-space:pre;stroke:none;fill:rgb(0, 0, 0);font-size:15px;font-family:Arial, Helvetica, sans-serif;font-weight:400;font-style:normal;dominant-baseline:text-before-edge;text-decoration:rgb(0, 0, 0);"> обустройства</text></g></g><g><g><text x="240.36669921875" y="475" style="white-space:pre;stroke:none;fill:rgb(0, 0, 0);font-size:15px;font-family:Arial, Helvetica, sans-serif;font-weight:400;font-style:normal;dominant-baseline:text-before-edge;text-decoration:rgb(0, 0, 0);">Профиль NPV</text></g></g><g><g><text x="154.45001220703125" y="305" style="white-space:pre;stroke:none;fill:rgb(0, 0, 0);font-size:15px;font-family:Arial, Helvetica, sans-serif;font-weight:400;font-style:normal;dominant-baseline:text-before-edge;text-decoration:rgb(0, 0, 0);">Профиль добычи</text></g></g><g><g><text x="155.4000244140625" y="135" style="white-space:pre;stroke:none;fill:rgb(0, 0, 0);font-size:15px;font-family:Arial, Helvetica, sans-serif;font-weight:400;font-style:normal;dominant-baseline:text-before-edge;text-decoration:rgb(0, 0, 0);">Модель скважины</text></g></g><g><g><text x="164.36669921875" y="219" style="white-space:pre;stroke:none;fill:rgb(0, 0, 0);font-size:15px;font-family:Arial, Helvetica, sans-serif;font-weight:400;font-style:normal;dominant-baseline:text-before-edge;text-decoration:rgb(0, 0, 0);">Модель пласта</text></g></g><g><g><text x="338.316650390625" y="52.83331298828125" style="white-space:pre;stroke:none;fill:rgb(0, 0, 0);font-size:15px;font-family:Arial, Helvetica, sans-serif;font-weight:400;font-style:normal;dominant-baseline:text-before-edge;text-decoration:rgb(0, 0, 0);">Многофазный поток</text></g></g><g><g><text x="203.41668701171875" y="51.83331298828125" style="white-space:pre;stroke:none;fill:rgb(0, 0, 0);font-size:15px;font-family:Arial, Helvetica, sans-serif;font-weight:400;font-style:normal;dominant-baseline:text-before-edge;text-decoration:rgb(0, 0, 0);">PVT</text></g></g></svg>
</svg>
